<svg id="Capa_1" enable-background="new 0 0 512 512" height="512" viewBox="0 0 512 512" width="512" xmlns="http://www.w3.org/2000/svg"><g><g><path d="m463.54 125.76c-4.282 0-8.177-2.85-9.505-6.912-1.302-3.984.088-8.474 3.418-11.025 3.319-2.542 7.96-2.721 11.48-.477 3.398 2.165 5.193 6.331 4.425 10.288-.9 4.642-5.08 8.126-9.818 8.126z"/><path d="m510.303 227.869c1.133-7.153 1.705-14.433 1.697-21.662 0-20.31-4.4-39.729-13.08-57.723-2.398-4.975-8.375-7.061-13.352-4.662-4.975 2.399-7.062 8.377-4.662 13.352 7.362 15.261 11.094 31.758 11.094 49.043.001.744-.006 1.488-.02 2.233-6.519-20.994-18.325-41.054-34.724-58.809-18.112-19.61-41.983-36.564-69.544-49.47 4.272-5.663 7.122-12.458 8.013-19.848 9.561 4.725 18.495 9.757 26.685 15.034 1.676 1.079 3.553 1.595 5.407 1.595 3.286 0 6.504-1.617 8.416-4.584 2.991-4.643 1.653-10.831-2.989-13.823-12.54-8.08-26.639-15.597-41.939-22.36-6.911-13.143-20.699-22.125-36.544-22.125-22.753 0-41.264 18.521-41.264 41.286s18.511 41.287 41.264 41.287c5.159 0 10.1-.952 14.656-2.69 59.442 24.767 98.236 66.188 106.763 113.925-4.6 25.812-17.629 49.274-38.781 69.86l-.449-.45c-1.875-1.877-4.42-2.932-7.073-2.932s-5.198 1.055-7.073 2.932l-35.746 35.772c-.206.089-.411.185-.615.29-33.519 17.252-68.645 26.905-107.297 29.479l-16.074-16.086c-1.875-1.877-4.42-2.932-7.073-2.932s-5.198 1.055-7.073 2.932l-16.074 16.086c-38.047-2.532-74.488-11.995-105.574-27.429l-38.083-38.11c-1.875-1.877-4.42-2.932-7.073-2.932s-5.198 1.055-7.073 2.932l-.761.762c-20.707-20.718-33.93-44.801-38.468-70.174 8.528-47.736 47.322-89.157 106.763-113.924 4.556 1.738 9.497 2.69 14.656 2.69 22.753 0 41.264-18.521 41.264-41.287s-18.511-41.286-41.264-41.286c-15.844 0-29.632 8.981-36.543 22.123-78.973 34.896-120.696 86.734-120.696 150.007-.007 7.247.564 14.53 1.697 21.679-1.148 7.206-1.704 14.253-1.697 21.477 0 32.373 10.964 63.94 31.79 91.757-2.124 3.805-1.569 8.703 1.664 11.938l41.596 41.626c1.875 1.877 4.42 2.932 7.073 2.932s5.198-1.055 7.074-2.932l.961-.962c35.006 22.192 75.145 36.294 119.452 41.955l39.317 39.345c1.875 1.877 4.42 2.932 7.073 2.932s5.198-1.055 7.073-2.932l39.317-39.345c43.702-5.588 82.601-19.595 118.662-42.746l1.751 1.753c1.876 1.877 4.421 2.932 7.074 2.932s5.198-1.055 7.073-2.932l41.596-41.626c3.18-3.182 3.768-7.973 1.765-11.75 21.034-27.635 31.689-58.53 31.689-91.93.007-7.231-.549-14.28-1.697-21.493zm-176.805-152.521c0-11.737 9.539-21.286 21.264-21.286s21.264 9.549 21.264 21.286-9.539 21.287-21.264 21.287-21.264-9.55-21.264-21.287zm-176.26-21.286c11.725 0 21.264 9.549 21.264 21.286s-9.539 21.287-21.264 21.287-21.264-9.55-21.264-21.287 9.54-21.286 21.264-21.286zm-40.964 26.266c.892 7.388 3.741 14.181 8.013 19.844-27.561 12.906-51.431 29.859-69.544 49.47-16.398 17.755-28.204 37.813-34.724 58.808-.014-.75-.021-1.5-.02-2.249.001-63.237 49.42-102.688 96.275-125.873zm-96.26 167.071c7.217 23.464 20.845 45.496 40.136 64.791l-14.281 14.29c-16.958-23.673-25.869-50.147-25.869-77.143-.001-.647.004-1.293.014-1.938zm34.649 98.575 27.459-27.478 27.458 27.478-27.458 27.479zm71.959 11.239c26.711 12.103 56.632 20.259 87.868 23.983l-22.59 22.607c-2.231 2.232-3.186 5.257-2.866 8.168-30.727-6.36-58.985-17.34-84.362-32.792zm129.378 96.578-42.89-42.92 42.89-42.921 42.89 42.921zm66.971-41.871c.304-2.896-.653-5.898-2.871-8.118l-22.597-22.614c30.748-3.709 59.494-11.863 87.146-24.706l21.91 21.927c-25.963 16.091-53.548 27.157-83.588 33.511zm106.907-38.468-27.458-27.479 27.458-27.478 27.459 27.478zm36.41-46.815-14.748-14.758c19.695-19.209 33.242-40.772 40.448-64.361.009.61.014 1.222.013 1.834-.001 27.894-8.644 53.849-25.713 77.285z"/></g></g></svg>