<svg id="Capa_1" enable-background="new 0 0 511.999 511.999" height="512" viewBox="0 0 511.999 511.999" width="512" xmlns="http://www.w3.org/2000/svg"><g><path d="m433.682 237.606-10.776-28.456c-.395-1.044-.935-2.007-1.59-2.873l13.301-23.037c.824-1.43 1.28-3.015 1.369-4.617.029-.379.03-.771 0-1.167-.09-1.601-.547-3.185-1.371-4.617l-16.292-28.218c-1.853-3.21-5.306-5.203-9.012-5.203h-32.584c-3.705 0-7.158 1.993-9.011 5.203l-16.292 28.218c-1.853 3.209-1.853 7.197 0 10.405l13.298 23.032c-.655.866-1.194 1.829-1.59 2.873l-10.764 28.423c-.31.113-.619.227-.928.343l-27.703-47.982c-3.009-5.215-8.617-8.441-14.619-8.441-51.469 0-199.442 0-247.714 0-5.998 0-11.607 3.223-14.619 8.441l-44.526 77.125c-3.701 6.414-2.828 14.622 2.421 20.108l168.384 176.029c6.648 6.948 17.758 6.94 24.397 0l80.338-83.985c13.335 51.772 60.472 89.196 115.22 89.196 65.605 0 118.979-53.373 118.979-118.978.001-51.33-32.674-95.173-78.316-111.822zm-54.275-83.143h27.227l9.271 16.058h-27.759c-4.155 0-7.522 3.367-7.522 7.522s3.367 7.522 7.522 7.522h27.759l-9.271 16.058h-27.227l-13.614-23.58zm-3.034 62.203h33.293l6.042 15.953c-15.169-2.941-30.731-2.843-45.369-.019zm-172.87 218.447 13.907-40.489c1.35-3.929-.741-8.209-4.67-9.557-3.928-1.349-8.209.74-9.557 4.67l-17.92 52.172-54.093-157.492h108.185l-24.653 71.78c-1.349 3.929.742 8.209 4.671 9.558 3.938 1.348 8.21-.746 9.558-4.671l26.332-76.668h92.392zm-6.174-165.74 31.021-63.271 31.02 63.271zm43.087-72.836h62.041l-31.021 63.271zm-55.153 63.271-31.021-63.271h62.043zm-54.171-48.184c3.746 1.835 8.243.273 10.066-3.443l1.019-2.079 31.021 63.27c-23.629 0-39.675 0-62.042 0l14.249-29.063c1.829-3.73.287-8.236-3.443-10.066-3.731-1.829-8.236-.288-10.066 3.443l-12.807 26.12-31.021-63.271h62.043l-2.462 5.022c-1.828 3.732-.286 8.239 3.443 10.067zm-15.829 72.793 51.76 150.696-144.152-150.696zm226.386-33.374c.023.04.046.08.069.12l10.514 18.21h-68.73l31.563-64.376zm-286.188-46.045 31.563 64.376h-68.73zm337.559 248.364c-51.091 0-94.593-37.299-102.616-87.329l12.742-13.32c1.735 48.074 41.385 86.649 89.874 86.649 49.589 0 89.934-40.345 89.934-89.934 0-6.889-.783-13.755-2.327-20.408-.939-4.047-4.98-6.569-9.027-5.627-4.047.939-6.566 4.98-5.627 9.027 1.285 5.54 1.937 11.262 1.937 17.008 0 41.295-33.595 74.89-74.89 74.89s-74.89-33.595-74.89-74.89c0-4.599.419-9.192 1.247-13.683l46.471-48.58c2.491-2.606 3.985-5.803 4.489-9.134 7.302-2.321 14.909-3.494 22.683-3.494 23.133 0 44.61 10.446 58.921 28.659 2.571 3.271 7.3 3.829 10.562 1.267 3.266-2.567 3.833-7.296 1.267-10.562-17.183-21.867-42.971-34.408-70.751-34.408-9.166 0-18.146 1.362-26.779 4.055l-7.156-12.394c10.927-3.774 22.272-5.661 33.935-5.661 57.31 0 103.935 46.625 103.935 103.935.001 57.309-46.624 103.934-103.934 103.934z"/><path d="m235.189 63.651v53.521c0 11.061 8.998 20.059 20.059 20.059s20.059-8.998 20.059-20.059v-53.521c0-11.061-8.998-20.059-20.059-20.059s-20.059 8.999-20.059 20.059zm25.073 0v53.521c0 2.765-2.25 5.015-5.015 5.015s-5.015-2.25-5.015-5.015v-53.521c0-2.765 2.25-5.015 5.015-5.015 2.765.001 5.015 2.25 5.015 5.015z"/><path d="m139.981 68.107c-4.64 2.679-7.959 7.004-9.346 12.179-1.387 5.176-.675 10.582 2.004 15.221l26.761 46.351c3.572 6.187 10.233 10.031 17.383 10.031 8.706 0 16.919-5.748 19.363-14.869 1.387-5.176.675-10.582-2.004-15.221l-26.761-46.351c-5.532-9.579-17.823-12.872-27.4-7.341zm39.297 68.065c-2.44 1.41-5.493.516-6.85-1.835l-26.761-46.351c-1.386-2.4-.566-5.464 1.835-6.85 2.412-1.392 5.478-.542 6.85 1.835l26.761 46.351c1.386 2.4.567 5.464-1.835 6.85z"/><path d="m370.514 68.107c-4.642-2.679-10.049-3.39-15.22-2.005-5.176 1.387-9.502 4.707-12.18 9.347l-26.761 46.351c-2.679 4.64-3.391 10.045-2.004 15.221 2.445 9.123 10.66 14.869 19.363 14.869 7.149 0 13.81-3.843 17.383-10.031l26.761-46.351c2.679-4.64 3.391-10.045 2.004-15.221s-4.706-9.501-9.346-12.18zm-5.686 19.878-26.761 46.351c-1.358 2.35-4.408 3.246-6.85 1.835-2.4-1.386-3.222-4.448-1.835-6.85l26.762-46.352c.939-1.627 2.631-2.508 4.349-2.508 2.154 0 4.223 1.425 4.837 3.719.346 1.294.168 2.645-.502 3.805z"/></g></svg>