<svg id="Layer_1" enable-background="new 0 0 512.008 512.008" height="512" viewBox="0 0 512.008 512.008" width="512" xmlns="http://www.w3.org/2000/svg"><g><g><path d="m411.145 15.188c-2.675-4.633-6.984-7.944-12.133-9.323l-19.318-5.177c-5.149-1.379-10.537-.667-15.171 2.008s-7.945 6.984-9.324 12.134l-25.418 94.861c-14.447 5.711-27.946 16.008-40.143 30.771-13.154 15.924-21.486 33.107-25.415 42.307h-16.439c-3.929-9.2-12.26-26.383-25.415-42.307-12.196-14.764-25.696-25.062-40.143-30.773l-25.417-94.859c-1.379-5.149-4.691-9.459-9.325-12.134-4.633-2.676-10.021-3.389-15.17-2.008l-19.317 5.177c-5.15 1.379-9.459 4.69-12.135 9.323s-3.389 10.021-2.008 15.17l22.949 85.648c-18.383 28.648-23.397 59.428-13.688 85.073 5.295 13.986 14.691 25.153 26.745 32.26l5.974 35.169c.602 3.543 3.059 6.491 6.436 7.721 15.899 5.792 38.7 10.879 62.557 13.957.434.056.865.083 1.292.083 4.953 0 9.254-3.679 9.905-8.722.707-5.478-3.161-10.49-8.639-11.197-19.803-2.555-38.657-6.516-52.831-11.057l-3.08-18.136c5.512 1.008 11.207 1.508 16.96 1.508 12.635 0 25.545-2.406 37.375-7.118 18.052-7.189 30.987-18.667 37.232-32.778h15.922c6.246 14.111 19.181 25.59 37.233 32.778 11.83 4.712 24.739 7.118 37.375 7.118 5.753 0 11.449-.5 16.961-1.508l-3.081 18.136c-14.174 4.541-33.031 8.503-52.838 11.058-5.478.707-9.345 5.72-8.639 11.197.65 5.044 4.952 8.722 9.905 8.722.427 0 .858-.027 1.292-.083 23.862-3.078 46.666-8.165 62.564-13.958 3.377-1.229 5.834-4.178 6.436-7.721l5.975-35.169c12.054-7.108 21.45-18.274 26.745-32.259 9.708-25.645 4.695-56.426-13.688-85.074l22.949-85.646c1.382-5.151.669-10.538-2.007-15.172zm-273.654 4.817 22.67 84.605c-6.663-.5-13.471-.126-20.398 1.148l-21.59-80.575zm65.919 196.962c-14.93 5.946-32.643 7.31-47.384 3.648-13.617-3.382-23.989-12.835-29.207-26.618-7.477-19.749-3.07-44.219 12.062-67.589 25.108-6.317 47.888 2.557 67.764 26.424 13.072 15.697 20.971 33.376 23.768 40.268-3.764 9.871-13.427 18.46-27.003 23.867zm181.778-22.969c-5.217 13.782-15.59 23.235-29.206 26.617-14.738 3.663-32.453 2.299-47.384-3.648-13.576-5.407-23.239-13.996-27.004-23.867 6.071-14.951 36.156-80.55 91.535-66.688 15.13 23.369 19.536 47.838 12.059 67.586zm-12.943-88.239c-6.927-1.273-13.735-1.647-20.398-1.147l22.67-84.606 19.318 5.176z"/><path d="m364.363 353.439c-34.303 6.608-69.747 9.82-108.359 9.82-38.611 0-74.056-3.212-108.358-9.82-3.889-.752-7.857.869-10.114 4.128-9.44 13.637-19.413 39.423-20.207 62.321-.174 5.026 3.412 9.4 8.375 10.215 47.605 7.812 77.093 31.739 87.645 71.118.924 3.451 3.62 6.146 7.07 7.071 11.655 3.124 21.5 3.716 35.588 3.716 14.089 0 23.933-.592 35.588-3.716 3.45-.925 6.146-3.62 7.07-7.071 10.553-39.379 40.041-63.307 87.646-71.118 4.963-.814 8.549-5.188 8.375-10.215-.794-22.899-10.767-48.686-20.207-62.321-2.254-3.259-6.219-4.883-10.112-4.128zm-83.311 136.785c-7.489 1.477-14.8 1.784-25.047 1.784s-17.559-.308-25.047-1.784c-13.107-41.051-45.014-67.877-92.875-78.132 1.952-13.75 7.162-27.971 12.578-37.75 33.443 5.996 67.986 8.917 105.344 8.917 37.359 0 71.902-2.921 105.345-8.917 5.415 9.778 10.625 23.999 12.577 37.75-47.861 10.255-79.768 37.081-92.875 78.132z"/><path d="m266.004 283.333c0-5.522-4.477-10-10-10h-.007c-5.523 0-9.996 4.478-9.996 10s4.48 10 10.003 10 10-4.477 10-10z"/></g></g></svg>